<?xml version="1.0" encoding="UTF-8" standalone="no"?>
<!-- Created with Inkscape (http://www.inkscape.org/) -->

<svg
   width="283.077mm"
   height="214.03661mm"
   viewBox="0 0 283.07701 214.03661"
   version="1.1"
   id="svg1"
   inkscape:export-filename="github-logo.png"
   inkscape:export-xdpi="200"
   inkscape:export-ydpi="200"
   inkscape:version="1.4 (e7c3feb100, 2024-10-09)"
   sodipodi:docname="logo.svg"
   xmlns:inkscape="http://www.inkscape.org/namespaces/inkscape"
   xmlns:sodipodi="http://sodipodi.sourceforge.net/DTD/sodipodi-0.dtd"
   xmlns="http://www.w3.org/2000/svg"
   xmlns:svg="http://www.w3.org/2000/svg">
  <sodipodi:namedview
     id="namedview1"
     pagecolor="#ffffff"
     bordercolor="#000000"
     borderopacity="0.25"
     inkscape:showpageshadow="2"
     inkscape:pageopacity="0.0"
     inkscape:pagecheckerboard="0"
     inkscape:deskcolor="#d1d1d1"
     inkscape:document-units="mm"
     inkscape:zoom="0.40132927"
     inkscape:cx="919.44454"
     inkscape:cy="414.87132"
     inkscape:window-width="1910"
     inkscape:window-height="1048"
     inkscape:window-x="0"
     inkscape:window-y="0"
     inkscape:window-maximized="1"
     inkscape:current-layer="layer1"
     inkscape:export-bgcolor="#ffffffff" />
  <defs
     id="defs1">
    <filter
       inkscape:collect="always"
       style="color-interpolation-filters:sRGB"
       id="filter16"
       x="-0.022798051"
       y="-0.024849633"
       width="1.0455975"
       height="1.0495146">
      <feGaussianBlur
         inkscape:collect="always"
         stdDeviation="0.0002408711"
         id="feGaussianBlur16" />
    </filter>
    <filter
       inkscape:collect="always"
       style="color-interpolation-filters:sRGB"
       id="filter17"
       x="-0.022657199"
       y="-0.02331634"
       width="1.0452902"
       height="1.046553">
      <feGaussianBlur
         inkscape:collect="always"
         stdDeviation="0.0002408711"
         id="feGaussianBlur17" />
    </filter>
    <filter
       inkscape:collect="always"
       style="color-interpolation-filters:sRGB"
       id="filter18"
       x="-0.013962894"
       y="-0.19630807"
       width="1.0279258"
       height="1.3967846">
      <feGaussianBlur
         inkscape:collect="always"
         stdDeviation="0.0002408711"
         id="feGaussianBlur18" />
    </filter>
    <filter
       inkscape:collect="always"
       style="color-interpolation-filters:sRGB"
       id="filter19"
       x="-0.0054724922"
       y="-0.01079395"
       width="1.0109357"
       height="1.0215397">
      <feGaussianBlur
         inkscape:collect="always"
         stdDeviation="0.0002408711"
         id="feGaussianBlur19" />
    </filter>
    <filter
       inkscape:collect="always"
       style="color-interpolation-filters:sRGB"
       id="filter20"
       x="-0.013810294"
       y="-0.016626559"
       width="1.0276206"
       height="1.0332579">
      <feGaussianBlur
         inkscape:collect="always"
         stdDeviation="0.0002408711"
         id="feGaussianBlur20" />
    </filter>
    <filter
       inkscape:collect="always"
       style="color-interpolation-filters:sRGB"
       id="filter21"
       x="-0.061699713"
       y="-0.044481579"
       width="1.1230941"
       height="1.0897529">
      <feGaussianBlur
         inkscape:collect="always"
         stdDeviation="0.0002408711"
         id="feGaussianBlur21" />
    </filter>
    <filter
       inkscape:collect="always"
       style="color-interpolation-filters:sRGB"
       id="filter22"
       x="-0.1481922"
       y="-0.078977615"
       width="1.2951909"
       height="1.1579552">
      <feGaussianBlur
         inkscape:collect="always"
         stdDeviation="0.0002408711"
         id="feGaussianBlur22" />
    </filter>
    <filter
       inkscape:collect="always"
       style="color-interpolation-filters:sRGB"
       id="filter23"
       x="-0.12007946"
       y="-0.079870748"
       width="1.2401589"
       height="1.1599502">
      <feGaussianBlur
         inkscape:collect="always"
         stdDeviation="0.0002408711"
         id="feGaussianBlur23" />
    </filter>
    <filter
       inkscape:collect="always"
       style="color-interpolation-filters:sRGB"
       id="filter24"
       x="-0.091870303"
       y="-0.32951066"
       width="1.1837406"
       height="1.6590213">
      <feGaussianBlur
         inkscape:collect="always"
         stdDeviation="0.0002408711"
         id="feGaussianBlur24" />
    </filter>
    <filter
       inkscape:collect="always"
       style="color-interpolation-filters:sRGB"
       id="filter25"
       x="-0.054742653"
       y="-0.17431928"
       width="1.1094853"
       height="1.3486679">
      <feGaussianBlur
         inkscape:collect="always"
         stdDeviation="0.0002408711"
         id="feGaussianBlur25" />
    </filter>
    <filter
       inkscape:collect="always"
       style="color-interpolation-filters:sRGB"
       id="filter26"
       x="-0.05374614"
       y="-0.18737668"
       width="1.1074923"
       height="1.3747576">
      <feGaussianBlur
         inkscape:collect="always"
         stdDeviation="0.0002408711"
         id="feGaussianBlur26" />
    </filter>
    <filter
       inkscape:collect="always"
       style="color-interpolation-filters:sRGB"
       id="filter27"
       x="-0.054940956"
       y="-0.39142733"
       width="1.1098819"
       height="1.7885164">
      <feGaussianBlur
         inkscape:collect="always"
         stdDeviation="0.0002408711"
         id="feGaussianBlur27" />
    </filter>
    <filter
       inkscape:collect="always"
       style="color-interpolation-filters:sRGB"
       id="filter28"
       x="-0.049505024"
       y="-0.49469254"
       width="1.09901"
       height="1.9906511">
      <feGaussianBlur
         inkscape:collect="always"
         stdDeviation="0.0002408711"
         id="feGaussianBlur28" />
    </filter>
    <filter
       inkscape:collect="always"
       style="color-interpolation-filters:sRGB"
       id="filter29"
       x="-0.048479455"
       y="-0.79432726"
       width="1.0969354"
       height="2.5899225">
      <feGaussianBlur
         inkscape:collect="always"
         stdDeviation="0.0002408711"
         id="feGaussianBlur29" />
    </filter>
  </defs>
  <g
     inkscape:label="Layer 1"
     inkscape:groupmode="layer"
     id="layer1"
     transform="translate(39.870948,10.128137)">
    <path
       style="mix-blend-mode:color-burn;fill:#ffffff;fill-opacity:0.996464;stroke:#000000;stroke-width:1.665;stroke-linecap:round;stroke-opacity:1;filter:url(#filter16)"
       d="m 63.61931,117.34961 c -0.549388,-0.32963 -1.318535,-1.53829 -1.648169,-0.9889 -0.329633,0.54939 2.280145,1.09423 1.648169,0.9889 -1.268589,-0.21143 -2.378281,-1.00661 -3.625971,-1.31854 -1.909027,-0.47725 -5.176748,0.29068 -6.922307,0.98891 -3.577349,1.43094 -4.18352,2.17569 -7.251943,4.28524 -0.652921,0.44888 -1.3856,0.79213 -1.977803,1.31853 -0.410618,0.36499 -0.600424,0.93006 -0.988902,1.31854 -0.388477,0.38847 -0.988898,0.54938 -1.318532,0.9889 -1.671093,2.22812 -1.040567,5.40947 -1.318535,7.91121 -0.223658,2.01289 -0.630698,2.83178 0.329634,4.9445 0.456787,1.00493 2.012214,2.25259 2.637067,2.96671 2.193232,2.50654 -1.783998,-0.99977 2.307437,2.63707 0.821237,0.72998 1.802815,1.26272 2.63707,1.9778 1.255347,1.07601 2.336035,2.689 3.955605,3.29633 2.925453,1.09705 13.395391,-0.6126 15.82242,-1.9778 1.048559,-0.58981 2.966468,-4.94403 3.625971,-6.26304 0.635418,-1.27083 1.393878,-2.5297 2.307437,-3.62597 0.724593,-0.86951 1.011288,-0.72643 1.318535,-1.64817 0.862595,-2.58778 0.40635,-5.58521 0.659268,-8.24084 0.116469,-1.22294 0.659264,-2.3975 0.659264,-3.62597 0,-0.59171 -0.365696,-1.13442 -0.659264,-1.64817 -0.291778,-0.51061 -5.948545,-6.13724 -6.263042,-6.26304 -1.975459,-0.79019 -4.682821,1.29566 -5.933409,1.9778 z"
       id="path1" />
    <path
       style="mix-blend-mode:color-burn;fill:#ffffff;fill-opacity:0.996464;stroke:#000000;stroke-width:1.665;stroke-linecap:round;stroke-opacity:1;filter:url(#filter17)"
       d="m 165.47613,114.35591 c -1.42841,0.22875 -2.85143,0.49414 -4.28523,0.68626 -0.48898,0.0655 -3.92075,0.27536 -4.94451,0.65927 -0.37094,0.13911 -0.62476,0.50321 -0.9889,0.65927 -1.08774,0.46617 -2.78295,0.82138 -3.95561,0.9889 -2.42707,0.34673 -5.18588,1.19083 -7.25194,2.63707 -4.48662,3.14064 0.48886,-0.19331 -2.63707,2.30744 -1.8673,1.49384 -4.30688,2.42636 -5.9334,4.28524 -1.27842,1.46104 -6.0376,9.83782 -6.26305,11.86681 -0.0728,0.65523 0,1.31853 0,1.9778 0,0.43951 -0.24379,0.95284 0,1.31854 0.27574,0.4136 5.72287,4.12318 6.26305,4.28523 0.52621,0.15787 1.10039,-0.0421 1.64816,0 2.58608,0.19893 5.3006,0.61971 7.91121,0.32964 0.45027,-0.05 0.86827,-0.27961 1.31854,-0.32964 2.52806,-0.28089 2.66871,0.66454 4.61487,0.98891 3.12346,0.52057 4.80261,-0.63764 7.58158,-1.64817 0.65309,-0.23749 1.29942,-0.50852 1.9778,-0.65927 0.32178,-0.0715 0.68284,0.12242 0.9889,0 1.51885,-0.60754 2.09896,-3.36402 2.30744,-4.61487 0.75339,-4.52038 -0.0376,0.89418 0.32963,-4.61487 0.4231,-6.34655 0.167,0.96711 0.65927,-3.95561 0.12834,-1.28339 -0.21226,-2.68204 0,-3.95561 0.47037,-2.82223 0.65926,-5.66379 0.65926,-8.57047 0,-1.54729 0.94341,-3.41545 0,-4.64187 -0.69787,-0.90725 -2.23722,-0.52784 -3.29633,-0.96191 -0.92472,-0.37898 -1.31404,-1.42766 -2.63707,-1.64816 -1.07405,-0.17901 -1.94387,0.18178 -2.9667,-0.32964"
       id="path2" />
    <path
       style="mix-blend-mode:color-burn;fill:#ffffff;fill-opacity:0.996464;stroke:#000000;stroke-width:1.665;stroke-linecap:round;stroke-opacity:1;filter:url(#filter18)"
       d="m 75.815761,126.90899 c 0.659267,0.54939 1.250071,1.19334 1.9778,1.64817 0.630697,0.39418 4.553421,0 4.944506,0 4.314733,0 8.878724,-0.33128 13.185349,0 3.730014,0.28692 7.491714,0.85405 11.207554,1.31853 1.09573,0.13697 2.24874,0.67883 3.29633,0.32963 0.14742,-0.0491 0.21976,-0.21975 0.32963,-0.32963 0.5494,-0.21975 1.07923,-0.49671 1.64817,-0.65927 2.44136,-0.69753 6.20543,0.78836 8.57048,0 0.37584,-0.12528 0.62107,-0.51213 0.9889,-0.65926 0.30222,-0.12089 3.91853,-1.28187 4.28524,-1.31854 1.09333,-0.10933 2.23037,0.26649 3.29634,0 0.15075,-0.0377 0.19065,-0.26014 0.32963,-0.32963 0.19656,-0.0983 0.50388,0.15539 0.65927,0 0.0777,-0.0777 -0.0983,-0.2805 0,-0.32963 0.39311,-0.19656 0.90158,0.13898 1.31853,0 0.14742,-0.0491 0.19065,-0.26015 0.32964,-0.32964 0.98768,-0.49384 2.20061,0.19267 3.29634,0.32964"
       id="path3" />
    <path
       style="mix-blend-mode:color-burn;fill:none;fill-opacity:0.996464;stroke:#000000;stroke-width:1.665;stroke-linecap:round;stroke-opacity:1;filter:url(#filter19)"
       d="m 164.81687,127.56825 c 3.3144,-2.68668 6.89377,-4.27572 10.87791,-5.60377 1.18851,-0.39617 2.45836,-0.53483 3.62597,-0.9889 0.82563,-0.32108 1.49585,-0.96346 2.30744,-1.31853 3.31734,-1.45134 8.02621,-1.77086 9.55938,-5.60378 0.16323,-0.40807 -0.1066,-0.89214 0,-1.31853 0.52449,-2.09797 0.32963,-4.37455 0.32963,-6.59268 0,-1.32963 0.19625,-3.24112 0,-4.61487 -0.17177,-1.20241 -0.7959,-2.468001 -0.9889,-3.625971 -0.16258,-0.975445 0.1092,-1.983851 0,-2.966704 -0.14762,-1.328547 -0.37918,-2.648553 -0.65927,-3.955603 -0.48989,-2.286172 -1.74696,-4.186126 -2.63707,-6.263042 -1.12014,-2.613662 0.68366,0.04391 -0.9889,-2.966704 -1.06481,-1.916652 -2.57726,-3.681143 -3.62597,-5.603772 -0.21694,-0.397721 -0.17056,-0.894344 -0.32963,-1.318535 -0.91821,-2.448565 -2.92355,-5.004776 -4.94451,-6.592676 -0.69657,-0.547306 -1.56007,-0.842936 -2.30744,-1.318535 -1.84454,-1.1738 -3.39994,-2.831089 -5.27414,-3.955605 -2.83037,-1.698223 -7.11937,-3.713554 -9.88901,-4.944504 -3.29313,-1.463614 -2.80727,-0.668661 -6.59267,-2.637071 -10.1038,-5.253974 -1.1908,-0.867862 -5.60378,-3.625971 -0.41669,-0.260435 -0.93482,-0.352301 -1.31853,-0.659268 -0.19186,-0.153485 -0.12521,-0.522981 -0.32964,-0.659267 -0.18284,-0.121899 -0.44377,0.0431 -0.65926,0 -0.34072,-0.06814 -0.64493,-0.280496 -0.9889,-0.329634 -0.97897,-0.139851 -1.9778,0 -2.96671,0 -3.74437,0 -7.48022,0.04292 -11.20755,0.329634 -5.86095,0.450842 1.75409,0.268811 -5.27413,0.659267 -8.14763,0 0.62085,-0.193939 -4.61488,0.329634 -2.9469,0.29469 -5.96968,-0.203171 -8.90011,0.329634 -2.36667,0.430302 -4.25034,1.766898 -6.59267,2.307436 -3.60266,0.831382 -7.264073,1.50436 -10.877916,2.307437 -4.683218,1.040714 0.954905,-0.160568 -2.966702,0.329634 -2.202315,0.275288 -4.371652,1.09643 -6.592676,1.318535 -6.159793,0.615979 -12.449659,1.850866 -18.129855,4.285236 -2.121257,0.909111 -3.736465,2.247077 -5.274141,3.955606 -0.470657,0.522954 -0.789048,1.18487 -1.318535,1.648169 -0.369806,0.323582 -0.918673,0.373652 -1.318533,0.659267 -0.379341,0.270957 -0.609562,0.717944 -0.988901,0.988902 -1.935371,1.382408 -4.55155,1.91448 -6.263042,3.625971 -0.388477,0.388477 -0.600424,0.930058 -0.988901,1.318535 -1.781064,1.781064 -1.303817,0.707531 -2.637071,2.307434 -0.253621,0.304348 -0.379132,0.708769 -0.659267,0.988902 -0.560269,0.560271 -1.417532,0.758266 -1.977803,1.318535 -0.701757,0.701757 -4.769773,7.037554 -4.944504,7.911211 -0.565745,2.828721 -0.517715,5.743355 -0.988901,8.570476 -0.09032,0.541914 0.133246,1.115184 0,1.648168 -0.493181,1.972721 -1.057506,6.908929 -0.659268,8.900109 0.189966,0.94983 0.762598,1.73187 0.988901,2.63707 0.408517,1.63407 0.07352,5.30967 -0.329633,6.92231 -0.277805,1.11121 0.510429,2.93475 0,3.95561 -0.06949,0.13898 -0.280496,0.18221 -0.329634,0.32963 -0.344948,1.03484 0,2.87127 0,3.95561 0,0.43951 -0.310782,1.00775 0,1.31853 0.328295,0.3283 0.834869,-0.30763 0.988901,-0.32963 0.65264,-0.0932 1.318535,0 1.977803,0"
       id="path4" />
    <path
       style="mix-blend-mode:color-burn;fill:none;fill-opacity:0.996464;stroke:#000000;stroke-width:1.665;stroke-linecap:round;stroke-opacity:1;filter:url(#filter20)"
       d="m 130.20532,50.433962 c 2.24654,2.63689 0.70325,5.735719 1.64817,8.570478 0.39941,1.198208 2.58465,3.428712 3.29634,4.61487 0.66479,1.107983 -0.008,0.758735 0.65927,1.648169 0.79273,1.056974 1.56109,2.17682 2.30744,3.296338 0.25557,0.383366 -0.20819,1.231805 0,1.648169 0.23547,0.470956 0.69012,0.460081 0.9889,0.659268 0.51753,0.345022 1.02465,1.158369 1.31853,1.648169 0.91089,1.518142 1.67957,3.178619 2.63707,4.61487 0.17239,0.258588 0.52028,0.381296 0.65927,0.659268 0.42929,0.858591 0.59116,1.841595 0.9889,2.63707 0.45101,0.902028 1.66454,1.334905 2.30744,1.977803 0.19157,0.191574 0.19112,1.041513 0.32963,1.318535 0.74549,1.49098 2.9393,2.293731 4.28524,2.966704 0.67932,0.339661 0.68747,1.332637 1.31853,1.648169 1.34259,0.671293 1.77968,1.516081 2.96671,2.307436 0.28911,0.192739 0.69095,0.150863 0.9889,0.329634 0.47937,0.287621 0.80924,1.063887 1.31853,1.318535 0.47286,0.236427 1.14787,0.325734 1.64817,0.659268 2.19051,1.460336 4.20027,3.418665 6.59268,4.61487 0.90888,0.454443 1.9888,0.463688 2.9667,0.659268 0.24092,0.04819 0.42618,0.251939 0.65927,0.329634 0.20848,0.06949 0.50388,-0.15539 0.65927,0 0.0777,0.07769 -0.10425,0.294888 0,0.329633 0.70267,0.234225 1.88686,0.2046 2.63707,0.329634 1.05814,0.176358 4.67932,0.856306 5.60377,1.318536 0.0555,0.0277 2.03843,-0.569598 2.30743,-0.659268 0.59335,-0.197779 1.38447,0.197778 1.97781,0 0.14741,-0.04914 0.18222,-0.280496 0.32963,-0.329634 0.32508,-0.108358 1.73958,0 1.9778,0 2.36448,0 2.94672,-0.316304 4.94451,-1.648169"
       id="path5" />
    <path
       style="mix-blend-mode:color-burn;fill:none;fill-opacity:0.996464;stroke:#000000;stroke-width:1.665;stroke-linecap:round;stroke-opacity:1;filter:url(#filter21)"
       d="m 155.91676,63.61931 c -0.43951,0 -1.31854,-0.43951 -1.31854,0 0,0.439513 1.62932,-0.310782 1.31854,0 -1.7885,1.788502 -3.05173,1.158949 -3.95561,2.966704 -0.13898,0.277972 -0.56099,0.364435 -0.65927,0.659268 -0.13898,0.416957 0.1066,0.892146 0,1.318535 -0.0596,0.238358 -0.27004,0.42091 -0.32963,0.659268 -0.23228,0.929124 0.18792,2.027102 0,2.966704 -0.12043,0.602149 -0.6825,1.931334 -0.32963,2.63707 0.37001,0.740021 1.45802,0.798751 1.9778,1.318535 0.8462,0.846196 1.09422,2.360094 2.30744,2.966702 0.36534,0.182673 2.06261,-1.031304 2.63707,-1.318535 0.54379,-0.271894 1.42312,-0.381926 1.9778,-0.659268 0.49162,-0.245808 0.81569,-0.737481 1.31853,-0.988899 0.19656,-0.09828 0.46272,0.09828 0.65927,0 0.82518,-0.412591 1.76003,-1.766001 1.9778,-2.63707 0.12638,-0.505486 -0.16444,-1.15484 0,-1.648169 0.48683,-1.460481 0.11063,-2.752214 0.32964,-4.285239 0.1061,-0.742754 0.74022,-2.145522 0.32963,-2.966704 -0.44124,-0.882489 -2.26278,-3.10919 -3.29634,-3.625972 -0.0983,-0.04914 -0.25193,0.0777 -0.32963,0 -0.0777,-0.07769 0.10424,-0.294886 0,-0.329634 -1.03753,-0.345844 -1.75558,0.36544 -2.63707,0.659268 -0.1512,0.0504 -1.27063,-0.111771 -1.31853,0 -0.31511,0.735245 -0.43952,1.538293 -0.65927,2.307436 z"
       id="path6" />
    <path
       style="mix-blend-mode:color-burn;fill:none;fill-opacity:0.996464;stroke:#000000;stroke-width:1.665;stroke-linecap:round;stroke-opacity:1;filter:url(#filter22)"
       d="m 157.56493,77.793561 c 0.32963,0.769146 0.78594,1.495615 0.9889,2.307436 0.13718,0.548743 -0.55928,0.22964 -0.65927,0.329634 -0.2747,0.274696 0.27469,1.373476 0,1.648169 -0.0777,0.0777 -0.25194,-0.0777 -0.32963,0 -0.0777,0.0777 0.0777,0.251939 0,0.329634 -0.0777,0.0777 -0.25194,-0.0777 -0.32964,0 -0.0777,0.0777 0.0491,0.231357 0,0.329633 -0.31421,0.628426 -1.0122,1.035506 -1.31853,1.648169 -0.2818,0.563597 -0.13898,2.446412 -0.32964,2.637071 -0.15539,0.155389 -0.46846,-0.10903 -0.65926,0 -0.68795,0.39311 -1.31854,0.879022 -1.97781,1.318535"
       id="path7" />
    <path
       style="mix-blend-mode:color-burn;fill:none;fill-opacity:0.996464;stroke:#000000;stroke-width:1.665;stroke-linecap:round;stroke-opacity:1;filter:url(#filter23)"
       d="m 172.33683,79.970874 c 0.36641,0.922571 -0.69575,0.811229 -0.93235,1.284423 -0.015,0.03004 -0.12004,1.031369 -0.11654,1.048887 0.10486,0.524301 0.54272,0.639263 0.8158,1.048888 0.0682,0.102217 0.0616,0.239752 0.11655,0.349631 0.21705,0.43411 0.55403,0.772787 0.8158,1.165432 0.18482,0.277238 0.52831,0.839014 0.58271,1.165431 0.0753,0.451974 -0.0991,0.85059 0.11655,1.281972 0.33928,0.678559 1.17225,0.9666 1.74814,1.398519 0.32848,0.246359 0.83056,0.579027 1.28198,0.466172 0.11899,-0.02975 0.18521,-0.301757 0.23308,-0.349628 0.12285,-0.122849 0.34333,-0.110242 0.46617,-0.233088 0.38537,-0.38536 0.53106,-1.373915 0.58272,-1.86469 0.0544,-0.516573 0.28742,-3.861655 0.11654,-4.545182 -0.26695,-1.067816 -1.55683,-1.88558 -2.4474,-2.330863 -0.11833,-0.05916 -0.23131,-0.290465 -0.34963,-0.349628 -0.23369,-0.116843 -0.54486,0.01892 -0.8158,-0.116544 -0.25873,-0.129363 -0.49978,-0.366429 -0.69926,-0.466172 -0.13899,-0.06949 -0.31234,0.02199 -0.46617,0 -0.16979,-0.02426 -0.72409,-0.337217 -0.93235,-0.233087 -0.64665,0.323328 -0.39955,0.621143 -0.11654,1.279527 z"
       id="path10" />
    <path
       style="mix-blend-mode:color-burn;fill:none;fill-opacity:0.996464;stroke:#000000;stroke-width:1.665;stroke-linecap:round;stroke-opacity:1;filter:url(#filter24)"
       d="m 178.16398,82.187641 c 0.66041,0.466172 1.25821,1.037005 1.98124,1.398518 0.17717,0.08859 0.38584,-0.09467 0.58271,-0.116543 0.45016,-0.05002 0.94362,0 1.39852,0 0.0777,0 0.17815,-0.05494 0.23309,0 0.0275,0.02747 -0.0348,0.09917 0,0.116543 0.0695,0.03475 0.15937,-0.02458 0.23308,0 0.0521,0.01738 0.0674,0.09197 0.11655,0.116544 0.4474,0.223703 2.38047,-0.229087 2.79703,0 0.5845,0.321445 1.15051,0.675444 1.72576,1.013166"
       id="path11" />
    <path
       style="mix-blend-mode:color-burn;fill:none;fill-opacity:0.996464;stroke:#000000;stroke-width:1.665;stroke-linecap:round;stroke-opacity:1;filter:url(#filter25)"
       d="m 157.23529,82.738067 c 0.33327,0.24385 0.63029,0.547216 0.99982,0.731549 0.0522,0.02603 0.69523,-0.618879 0.8158,-0.69926 0.52413,-0.349419 1.15961,-0.619622 1.74815,-0.8158 0.26754,-0.08918 0.88791,-0.03605 1.04889,-0.116544 0.64282,-0.32141 1.31289,-0.703675 2.09777,-0.815803 0.68528,-0.0979 1.4125,0.0979 2.09778,0 0.2071,-0.02958 0.37976,-0.182345 0.58271,-0.233084 0.37026,-0.09256 0.69627,-0.162563 1.04889,-0.233088 0.23404,0.02674 0.37976,-0.182348 0.58272,-0.233084 0.0754,-0.01884 0.15938,0.02458 0.23308,0 0.15221,-0.05073 0.29252,-0.280168 0.46618,-0.349631 0.18925,-0.0757 0.83212,-0.132861 0.93234,-0.233085 0.0275,-0.02747 -0.0275,-0.08907 0,-0.116544 0.0314,-0.03144 0.41932,-0.214344 0.46618,-0.233087 0.39466,-0.157864 0.9882,-0.291013 1.39851,-0.349628 0.11538,-0.01648 0.23657,0.02827 0.34963,0 0.1599,-0.03997 0.23309,-0.233088 0.34963,-0.349631"
       id="path12" />
    <path
       style="mix-blend-mode:color-burn;fill:none;fill-opacity:0.996464;stroke:#000000;stroke-width:1.665;stroke-linecap:round;stroke-opacity:1;filter:url(#filter26)"
       d="m 158.23511,83.469616 c 1.43145,0.715727 0.9653,0.654021 2.09777,0.815803 1.37805,0.196863 3.01366,-0.169749 4.3121,0.349628 0.32263,0.129053 1.08134,0.865468 1.28198,0.932344 0.34963,0.116544 0.11654,-0.05827 0.34963,0 0.25442,0.06361 0.57465,0.152704 0.8158,0.233088 0.30171,0.10057 0.39861,0.294375 0.69926,0.466172 0.10666,0.06095 0.23975,0.06161 0.34963,0.116543 0.17082,0.08541 0.28229,0.30366 0.46617,0.349629 0.40815,0.102039 0.74299,-0.0645 1.16543,0.116543 0.77137,0.330587 0.32488,0.466172 1.39852,0.466172 0.61101,0 1.18596,0.04569 1.74814,0.233088 0.11655,0.03885 0.23975,0.0616 0.34963,0.116543 0.0983,0.04914 0.16716,0.320987 0.23309,0.233085 0.12552,-0.16736 0.15539,-0.388477 0.23309,-0.582716"
       id="path13" />
    <path
       style="mix-blend-mode:color-burn;fill:none;fill-opacity:0.996464;stroke:#000000;stroke-width:1.665;stroke-linecap:round;stroke-opacity:1;filter:url(#filter27)"
       d="m 26.715067,79.970876 c -3.108342,0.799327 -8.608625,2.683348 -11.866815,1.8688 -1.123623,-0.280906 -2.156696,-2.245649 -3.296337,-1.8688"
       id="path14" />
    <path
       style="mix-blend-mode:color-burn;fill:none;fill-opacity:0.996464;stroke:#000000;stroke-width:1.665;stroke-linecap:round;stroke-opacity:1;filter:url(#filter28)"
       d="m 27.547567,108.21038 c -1.701835,-0.11434 -3.416161,0.12154 -5.117739,0 -1.14008,-0.0814 -2.375422,-0.19881 -3.296337,-0.65927 -1.259275,-0.62964 -4.624279,0.32775 -6.263041,0 -1.079735,-0.21595 -0.812771,-0.9889 -2.151035,-0.9889"
       id="path15" />
    <path
       style="mix-blend-mode:color-burn;fill:none;fill-opacity:0.996464;stroke:#000000;stroke-width:1.665;stroke-linecap:round;stroke-opacity:1;filter:url(#filter29)"
       d="m 28.380067,134.91071 c -1.214268,0.10988 -2.432224,0.18466 -3.642803,0.32963 -1.542884,0.18477 -3.065912,0.53535 -4.614872,0.65927 -1.684196,0.13474 -3.539639,0 -5.27414,0 -0.965253,0 -2.93357,0.0166 -3.625971,-0.32964 -0.138986,-0.0695 0.174243,-0.32963 0.329634,-0.32963"
       id="path16" />
  </g>
</svg>
