<?xml version="1.0" encoding="UTF-8" standalone="no"?>
<!-- Created with Inkscape (http://www.inkscape.org/) -->

<svg
   width="33.866665mm"
   height="33.866665mm"
   viewBox="0 0 33.866664 33.866666"
   version="1.1"
   id="svg1"
   xml:space="preserve"
   inkscape:export-filename="logo.png"
   inkscape:export-xdpi="300"
   inkscape:export-ydpi="300"
   inkscape:version="1.4 (e7c3feb100, 2024-10-09)"
   sodipodi:docname="favicon.svg"
   xmlns:inkscape="http://www.inkscape.org/namespaces/inkscape"
   xmlns:sodipodi="http://sodipodi.sourceforge.net/DTD/sodipodi-0.dtd"
   xmlns="http://www.w3.org/2000/svg"
   xmlns:svg="http://www.w3.org/2000/svg"><sodipodi:namedview
     id="namedview1"
     pagecolor="#ffffff"
     bordercolor="#000000"
     borderopacity="0.25"
     inkscape:showpageshadow="2"
     inkscape:pageopacity="0.0"
     inkscape:pagecheckerboard="0"
     inkscape:deskcolor="#d1d1d1"
     inkscape:document-units="mm"
     inkscape:zoom="3.2106341"
     inkscape:cx="75.530251"
     inkscape:cy="72.727067"
     inkscape:window-width="1910"
     inkscape:window-height="1048"
     inkscape:window-x="0"
     inkscape:window-y="0"
     inkscape:window-maximized="1"
     inkscape:current-layer="layer1" /><defs
     id="defs1" /><g
     inkscape:label="Layer 1"
     inkscape:groupmode="layer"
     id="layer1"
     transform="translate(-88.572776,-135.19003)"><path
       style="fill:none;stroke:#000000;stroke-width:1;stroke-linecap:round;stroke-dasharray:none;stroke-opacity:1"
       d="m 89.714773,158.86523 v -12.12174 c 0,0 -0.408403,-2.58781 3.675573,-4.22219 4.083965,-1.63439 22.461804,-0.54479 22.461804,-0.54479 0,0 3.94783,1.49818 4.62849,5.58416 0.68067,4.08599 0.40841,12.12176 0.40841,12.12176 z"
       id="path1" /><path
       style="fill:none;stroke:#000000;stroke-width:1;stroke-linecap:round;stroke-dasharray:none;stroke-opacity:1"
       d="m 90.259296,150.69326 h 26.273534 c 0,0 2.99488,0.40859 4.22009,2.8602"
       id="path2" /><ellipse
       style="fill:#ffffff;fill-opacity:1;stroke:#000000;stroke-width:1;stroke-linecap:round;stroke-dasharray:none;stroke-opacity:1"
       id="path3"
       cx="96.793648"
       cy="159.27383"
       rx="2.8587761"
       ry="2.8601868" /><ellipse
       style="fill:#ffffff;fill-opacity:1;stroke:#000000;stroke-width:1;stroke-linecap:round;stroke-dasharray:none;stroke-opacity:1"
       id="path3-2"
       cx="116.58539"
       cy="159.1908"
       rx="2.8587761"
       ry="2.8601868" /><path
       style="fill:#ffffff;fill-opacity:1;stroke:none;stroke-width:1;stroke-linecap:round;stroke-dasharray:none;stroke-opacity:1"
       d="m 107.88843,158.44942 c -1.72208,-0.0513 -4.09301,-0.10133 -5.26876,-0.11106 l -2.1377,-0.0178 -0.26132,-0.59101 c -0.33578,-0.75946 -1.129598,-1.55069 -1.896098,-1.88992 -0.821222,-0.36346 -2.244804,-0.36157 -3.070918,0.005 -0.698355,0.30907 -1.612284,1.18964 -1.862853,1.79485 l -0.169598,0.40966 h -1.27674 -1.27674 v -3.2007 -3.20068 H 103.7313 c 12.84423,0 13.07612,0.005 13.81083,0.27972 0.80568,0.3016 2.01012,1.28847 2.33159,1.91042 0.14332,0.27724 0.19854,0.86399 0.19854,2.10876 v 1.72466 l -0.44243,-0.65945 c -0.8859,-1.32045 -2.74423,-1.8863 -4.37227,-1.33129 -0.90295,0.30782 -1.88614,1.29863 -2.18654,2.20352 l -0.23564,0.70983 -0.90796,-0.0251 c -0.49938,-0.0141 -2.31691,-0.067 -4.03899,-0.11827 z"
       id="path4" /><path
       style="fill:#ffffff;fill-opacity:1;stroke:none;stroke-width:1;stroke-linecap:round;stroke-dasharray:none;stroke-opacity:1"
       d="m 105.66933,158.39932 -5.214,-0.14697 -0.24739,-0.54481 c -0.325017,-0.7158 -1.158503,-1.53767 -1.895556,-1.86917 -0.835499,-0.37578 -2.271439,-0.36319 -3.077026,0.027 -0.719914,0.34867 -1.608526,1.20289 -1.844658,1.77323 l -0.169517,0.40946 h -1.27674 -1.27674 v -3.20068 -3.20068 H 103.7313 c 12.84423,0 13.07612,0.005 13.81083,0.27971 0.80568,0.30161 2.01012,1.28846 2.33159,1.91043 0.14332,0.27741 0.19854,0.8646 0.19854,2.11386 v 1.72976 l -0.3911,-0.58261 c -0.44134,-0.65748 -1.31152,-1.29584 -2.04385,-1.49936 -1.97837,-0.54981 -3.99036,0.52874 -4.63321,2.48362 l -0.16795,0.51076 -0.97641,-0.0232 c -0.53702,-0.0125 -3.32271,-0.0894 -6.19041,-0.17025 z"
       id="path5" /><path
       style="fill:#ebcb8b;fill-opacity:1;stroke:#ebcb8b;stroke-width:0.600001;stroke-linecap:round;stroke-dasharray:none;stroke-opacity:1"
       d="m 105.66083,158.39932 -5.2225,-0.14697 -0.27271,-0.58053 c -0.346453,-0.73747 -1.413981,-1.70342 -2.114672,-1.91345 -0.691307,-0.20722 -1.823284,-0.20722 -2.514591,0 -0.64461,0.19322 -1.713302,1.11785 -2.080512,1.80006 l -0.263545,0.48961 h -1.262299 -1.262298 v -3.20068 -3.20068 H 103.7313 c 12.84423,0 13.07612,0.005 13.81083,0.27971 0.80568,0.30161 2.01012,1.28846 2.33159,1.91043 0.25079,0.48521 0.29105,4.05413 0.0407,3.59832 -0.27548,-0.50132 -1.12975,-1.3141 -1.67982,-1.59823 -0.3239,-0.1673 -0.91715,-0.30803 -1.46413,-0.34731 -0.83214,-0.0598 -1.00446,-0.0243 -1.81203,0.37352 -0.96899,0.47727 -1.50737,1.07746 -1.90806,2.12715 l -0.23,0.60258 -0.96846,-0.0233 c -0.53266,-0.0125 -3.31859,-0.0894 -6.19097,-0.17026 z"
       id="path6" /><path
       style="fill:#f3f3f3;fill-opacity:1;stroke:#d8dee9;stroke-width:0.37795276;stroke-linecap:round;stroke-dasharray:none;stroke-opacity:1"
       d="m 118.34178,62.124806 c -2.15196,-1.79791 -5.24764,-3.474828 -8.28486,-4.487874 l -2.84913,-0.950311 H 56.694937 6.1820814 l 0.101475,-7.86449 c 0.099456,-7.707997 0.1175206,-7.898695 0.9078377,-9.583475 1.7073963,-3.639787 6.2586039,-7.403919 11.3357749,-9.375391 4.331655,-1.681987 9.85063,-2.489378 21.192206,-3.100286 11.242405,-0.605566 48.405494,-0.104002 60.794285,0.820497 2.36533,0.17651 2.76256,0.311974 5.27552,1.799085 6.06507,3.589158 10.76015,9.638546 12.36799,15.935589 0.82827,3.243861 2.20176,17.909235 1.6773,17.909235 -0.0951,0 -0.76686,-0.49616 -1.49269,-1.102579 z"
       id="path7"
       transform="matrix(0.26458333,0,0,0.26458333,88.572776,135.19003)" /></g></svg>
